<svg xmlns="http://www.w3.org/2000/svg" width="50" height="50" viewBox="0 0 50 50">
    <path d="M24.94 0c-.02 0-.04.02-.059.02-.257.058-.455.29-.436.541v36.687l-9.084-8.654c-.139-.135-.337-.193-.515-.155-.416.077-.574.675-.277.946l10.036 9.544c.198.213.573.213.771 0l10.036-9.544c.218-.213.218-.579.02-.79-.199-.194-.594-.194-.792 0l-9.086 8.653V.561c.02-.309-.297-.579-.613-.56zm-6.393 1.122c-.04.02-.059.02-.099.02C7.818 3.961 0 13.427 0 24.69c0 13.466 11.204 24.4 25 24.4s25-10.934 25-24.4c0-11.263-7.819-20.73-18.448-23.55-.297-.077-.614.116-.693.387-.079.27.099.599.396.676C41.39 4.889 48.872 13.931 48.872 24.691c0 12.886-10.67 23.318-23.872 23.318-13.203 0-23.892-10.432-23.892-23.318 0-10.76 7.483-19.802 17.617-22.487.277-.058.495-.348.436-.638-.04-.27-.336-.482-.614-.444z"/>
</svg>
